#N canvas -8 -8 1920 997 12;
#X declare -lib mrpeach;
#X obj -490 -194 unpackOSC;
#X obj -586 -247 import mrpeach;
#X obj -41 -126 mod 360;
#X floatatom 197 84 5 0 0 0 - - -;
#X obj 197 188 difference;
#X msg -636 491 devices;
#X msg -636 469 close;
#X obj -558 486 arduino 1 9600;
#X obj -41 -101 s sim_performer;
#X obj 197 57 r sim_performer;
#X obj -490 -216 udpreceive 8015;
#X text -364 -217 oculus;
#X text -531 -94 pitch;
#X floatatom 355 189 5 0 0 0 - - -;
#X obj 256 111 r adjust_ceiling;
#X obj 197 135 -;
#X floatatom 197 160 5 0 0 0 - - -;
#X text 189 33 inhibit yaw if pitch between -70 70;
#X obj 204 283 inhibit_yaw;
#X floatatom 155 241 5 0 0 0 - - -;
#X floatatom -765 24 5 0 0 0 - - -;
#X obj -487 -94 unpack f f f f;
#X text -766 -3 roll;
#X obj -324 224 smooth;
#X obj -748 209 smooth;
#X floatatom -425 200 5 0 0 0 - - -;
#X msg -425 173 0.15;
#X msg -560 319 analog 6 \$1;
#X msg -342 310 analog 5 \$1;
#X obj -546 235 smooth;
#X text -572 133 yaw;
#X text -580 -41 pitch;
#X msg -759 302 analog 7 \$1;
#X text -447 485 performer arduino runs at 9600 bauds/s;
#X text -529 151 HORIZONTAL;
#X text -764 147 ROLL;
#X floatatom -579 -19 5 0 0 0 - - -;
#X text 8 -144 Use to align ceiling camera with user;
#X text -347 150 pitch;
#X text -351 0 yaw;
#X obj -684 141 s pitch;
#X obj 352 139 r pitch;
#X text -214 352 define speedlim;
#X text -304 146 VERTICAL;
#X obj -347 174 map -1.7 1.7 2 8.5;
#X obj -752 264 hsl 128 15 2.2 8.5 0 0 empty empty empty -2 -8 0 10
-257985 -1 -1 5771 1;
#X obj -560 263 hsl 128 15 2.2 9 0 0 empty empty empty -2 -8 0 10 -204800
-1 -1 0 1;
#X obj -346 275 hsl 128 15 2.2 8.5 0 0 empty empty empty -2 -8 0 10
-257985 -1 -1 8963 1;
#X floatatom -340 41 5 0 0 0 - - -;
#X floatatom -580 31 5 0 0 0 - - -;
#X obj -580 4 * 2;
#X obj -561 288 hsl 128 15 2.2 8.5 0 0 empty empty empty -2 -8 0 10
-257985 -1 -1 8537 1;
#X obj -760 447 bng 15 250 50 0 empty empty empty 17 7 0 10 -262144
-1 -1;
#X obj -742 447 loadbang;
#X obj -761 499 s center;
#X floatatom -190 216 5 0 0 0 - - -;
#X floatatom -471 187 5 0 0 0 - - -;
#X floatatom -625 190 5 0 0 0 - - -;
#X msg -760 471 5;
#X text -429 221 define smooth;
#X obj -565 170 map -3 3 9 2;
#X obj -117 299 loadbang;
#X msg -115 321 60;
#X obj 351 168 map 180 -180 0 360;
#X text -504 71 adjust head movement to a 180o range (instead of default
360);
#X text -205 137 comment;
#X text -210 159 map values to Servo Range miniservo (2.5 8.5 // 2.5-9
for pitch);
#X floatatom -222 241 5 0 0 0 - - -;
#X msg -77 238 5.25;
#X msg -117 233 5.6;
#X obj -552 353 speedlim 60;
#X obj -340 356 speedlim 60;
#X obj -753 341 speedlim 60;
#X obj -313 -301 hsl 128 15 -3 3 0 0 empty empty empty -2 -8 0 10 -257985
-1 -1 11743 1;
#X obj -111 -284 bng 15 250 50 0 empty empty empty 17 7 0 10 -262144
-1 -1;
#X obj 197 212 map 90 -90 8.5 2.2;
#X floatatom -92 -148 5 0 0 0 - - -;
#X obj -42 -164 hsl 128 15 0 360 0 0 empty empty empty -2 -8 0 10 -257985
-1 -1 12639 1;
#X obj -69 197 bng 15 250 50 0 empty empty empty 17 7 0 10 -262144
-1 -1;
#X text -37 196 centrar servos para reparación;
#X text -49 -417 (deben estar funcionando las oculus para que funcione)
;
#X text -48 -440 Botón Calibrar;
#N canvas 0 0 1284 721 botonCalibrar 0;
#X obj 280 212 inlet;
#X obj 280 239 bng 15 250 50 0 empty empty empty 17 7 0 10 -262144
-1 -1;
#X obj 133 213 inlet;
#X obj 168 335 spigot;
#X msg 280 272 1;
#X msg 314 273 0;
#X obj 136 271 hsl 128 15 0 360 0 0 empty empty empty -2 -8 0 10 -257985
-1 -1 11743 1;
#X obj 133 236 map -3 3 0 360;
#X obj 169 359 outlet;
#X connect 0 0 1 0;
#X connect 1 0 4 0;
#X connect 1 0 6 0;
#X connect 1 0 5 0;
#X connect 2 0 7 0;
#X connect 3 0 8 0;
#X connect 4 0 3 1;
#X connect 5 0 3 1;
#X connect 6 0 3 0;
#X connect 7 0 6 0;
#X restore -97 -219 pd botonCalibrar;
#N canvas 0 22 1345 686 calibrarCompass 0;
#X floatatom 519 -148 5 0 0 0 - - -;
#X floatatom 310 180 5 0 0 0 - - -;
#X floatatom 477 40 5 0 0 0 - - -;
#X floatatom 481 103 5 0 0 0 - - -;
#X obj 481 72 spigot;
#X msg 553 -3 1;
#X msg 553 23 0;
#X obj 514 -34 t b b b;
#X floatatom 399 198 5 0 0 0 - - -;
#X obj 346 223 spigot;
#X obj 402 154 >;
#X obj 694 158 <;
#X floatatom 741 169 5 0 0 0 - - -;
#X obj 708 217 spigot;
#X floatatom 752 262 5 0 0 0 - - -;
#X obj 328 428 hsl 128 15 0 360 0 0 empty empty empty -2 -8 0 10 -262144
-1 -1 0 1;
#X floatatom 347 261 5 0 0 0 - - -;
#X msg 696 307 360;
#X obj 722 338 -;
#X obj 737 365 +;
#X floatatom 737 392 5 0 0 0 - - -;
#X floatatom 688 392 5 0 0 0 - - -;
#X obj 696 278 bng 15 250 50 0 empty empty empty 17 7 0 10 -262144
-1 -1;
#X obj 810 420 < 360;
#X floatatom 790 463 5 0 0 0 - - -;
#X obj 737 488 spigot;
#X floatatom 738 516 5 0 0 0 - - -;
#X obj 328 458 hsl 128 15 0 360 0 0 empty empty empty -2 -8 0 10 -262144
-1 -1 0 1;
#X obj 104 358 hsl 128 15 0 360 0 0 empty empty empty -2 -8 0 10 -262144
-1 -1 0 1;
#X obj 384 315 > 0;
#X floatatom 400 341 5 0 0 0 - - -;
#X obj 348 374 spigot;
#X floatatom 296 390 5 0 0 0 - - -;
#X floatatom 120 394 5 0 0 0 - - -;
#X obj 95 443 outlet;
#X obj 519 -182 inlet;
#X obj 95 -79 inlet;
#X msg 95 213 0;
#X obj 346 308 -;
#X obj 692 -153 bng 15 250 50 0 empty empty empty 17 7 0 10 -262144
-1 -1;
#X text 552 -159 Calibrar Norte a 0;
#X obj 779 -138 inlet;
#X connect 0 0 2 0;
#X connect 0 0 11 0;
#X connect 0 0 13 0;
#X connect 0 0 10 0;
#X connect 0 0 1 0;
#X connect 1 0 9 0;
#X connect 2 0 4 0;
#X connect 3 0 11 1;
#X connect 3 0 18 1;
#X connect 3 0 10 1;
#X connect 3 0 38 1;
#X connect 4 0 3 0;
#X connect 5 0 4 1;
#X connect 6 0 4 1;
#X connect 7 0 6 0;
#X connect 7 1 2 0;
#X connect 7 2 5 0;
#X connect 8 0 9 1;
#X connect 9 0 16 0;
#X connect 10 0 8 0;
#X connect 11 0 12 0;
#X connect 12 0 13 1;
#X connect 13 0 14 0;
#X connect 14 0 19 1;
#X connect 14 0 22 0;
#X connect 15 0 28 0;
#X connect 16 0 29 0;
#X connect 16 0 38 0;
#X connect 17 0 18 0;
#X connect 18 0 19 0;
#X connect 18 0 21 0;
#X connect 19 0 20 0;
#X connect 20 0 23 0;
#X connect 20 0 25 0;
#X connect 22 0 17 0;
#X connect 23 0 24 0;
#X connect 24 0 25 1;
#X connect 25 0 26 0;
#X connect 26 0 27 0;
#X connect 27 0 28 0;
#X connect 28 0 33 0;
#X connect 28 0 34 0;
#X connect 29 0 30 0;
#X connect 30 0 31 1;
#X connect 31 0 15 0;
#X connect 31 0 32 0;
#X connect 35 0 0 0;
#X connect 35 0 37 0;
#X connect 35 0 7 0;
#X connect 36 0 0 0;
#X connect 37 0 34 0;
#X connect 38 0 31 0;
#X connect 39 0 7 0;
#X connect 41 0 0 0;
#X restore 332 -2 pd calibrarCompass;
#X obj 328 -252 unpackOSC;
#X floatatom 323 -144 5 0 0 0 - - -;
#X obj 324 -215 routeOSC /gyrosc;
#X obj 324 -192 routeOSC /comp;
#X obj 324 -168 unpack f;
#X obj 337 -280 udpreceive 7777;
#X obj 308 -93 hsl 128 15 0 360 0 0 empty empty empty -2 -8 0 10 -257985
-1 -1 0 1;
#X obj 338 -118 map 0 360 360 0;
#X obj -75 -285 bng 15 250 50 0 empty empty empty 17 7 0 10 -262144
-1 -1;
#X obj -114 -344 t b b;
#X obj -110 -370 bng 15 250 50 0 empty empty empty 17 7 0 10 -262144
-1 -1;
#X obj -111 -315 delay 200;
#X obj 208 -53 spigot;
#X obj 230 -325 tgl 15 0 empty empty empty 17 7 0 10 -262144 -1 -1
0 1;
#X text 258 -331 Activar/Desactivar movil cuerpo;
#X floatatom 206 -29 5 0 0 0 - - -;
#X floatatom -422 312 5 0 0 0 - - -;
#X floatatom 264 -110 5 0 0 0 - - -;
#X floatatom -37 -19 5 0 0 0 - - -;
#X obj -32 10 +;
#X floatatom -32 36 5 0 0 0 - - -;
#X floatatom -34 90 5 0 0 0 - - -;
#X obj -32 61 mod 360;
#X obj -91 -19 spigot;
#X msg -75 -47 0;
#X msg -56 -70 1;
#X floatatom -92 11 5 0 0 0 - - -;
#X obj -128 -97 delay 100;
#X obj -127 -141 bng 15 250 50 0 empty empty empty 17 7 0 10 -262144
-1 -1;
#X obj -128 -123 t b b b;
#X text 308 -46 comment;
#X obj -582 67 map 6.26 -6.26 -180 180;
#X obj -118 -443 key;
#X obj -119 -416 select 32;
#X obj -110 -392 bng 15 250 50 0 empty empty empty 17 7 0 10 -262144
-1 -1;
#X obj -490 -172 routeOSC /ori;
#X obj -255 -92 print;
#X obj -764 170 map -1.4 1.4 2 9;
#X text 42 375 2.4 - 7.8;
#X obj 86 474 spigot;
#X msg -635 514 open 4;
#X floatatom 87 445 5 0 0 0 - - -;
#X obj -333 248 split 2.6 7.8;
#X obj 87 417 > 2.8;
#X obj -659 374 spigot;
#X obj -389 446 spigot;
#X floatatom -189 423 5 0 0 0 - - -;
#X obj -203 377 > 2.8;
#X connect 0 0 119 0;
#X connect 2 0 8 0;
#X connect 3 0 15 0;
#X connect 4 0 75 0;
#X connect 5 0 7 0;
#X connect 6 0 7 0;
#X connect 9 0 3 0;
#X connect 10 0 0 0;
#X connect 14 0 15 1;
#X connect 15 0 16 0;
#X connect 16 0 4 0;
#X connect 18 0 123 0;
#X connect 20 0 121 0;
#X connect 21 0 20 0;
#X connect 21 1 48 0;
#X connect 21 2 36 0;
#X connect 25 0 24 1;
#X connect 25 0 29 1;
#X connect 25 0 23 1;
#X connect 26 0 25 0;
#X connect 27 0 70 0;
#X connect 28 0 71 0;
#X connect 32 0 72 0;
#X connect 36 0 50 0;
#X connect 36 0 73 0;
#X connect 41 0 63 0;
#X connect 44 0 23 0;
#X connect 44 0 55 0;
#X connect 44 0 126 0;
#X connect 44 0 127 0;
#X connect 44 0 131 0;
#X connect 45 0 32 0;
#X connect 46 0 18 1;
#X connect 47 0 28 0;
#X connect 48 0 44 0;
#X connect 49 0 60 0;
#X connect 49 0 115 0;
#X connect 50 0 49 0;
#X connect 51 0 27 0;
#X connect 51 0 100 0;
#X connect 52 0 58 0;
#X connect 53 0 58 0;
#X connect 58 0 54 0;
#X connect 60 0 29 0;
#X connect 60 0 56 0;
#X connect 60 0 46 0;
#X connect 61 0 62 0;
#X connect 62 0 70 1;
#X connect 62 0 71 1;
#X connect 62 0 72 1;
#X connect 63 0 13 0;
#X connect 63 0 4 1;
#X connect 68 0 47 0;
#X connect 68 0 45 0;
#X connect 69 0 46 0;
#X connect 70 0 7 0;
#X connect 71 0 7 0;
#X connect 72 0 7 0;
#X connect 73 0 82 0;
#X connect 74 0 82 1;
#X connect 74 0 112 0;
#X connect 75 0 19 0;
#X connect 75 0 18 0;
#X connect 76 0 107 0;
#X connect 77 0 2 0;
#X connect 77 0 76 0;
#X connect 78 0 69 0;
#X connect 78 0 68 0;
#X connect 82 0 77 0;
#X connect 83 0 96 0;
#X connect 84 0 86 0;
#X connect 85 0 91 0;
#X connect 86 0 87 0;
#X connect 87 0 88 0;
#X connect 88 0 85 0;
#X connect 89 0 84 0;
#X connect 90 0 101 0;
#X connect 90 0 83 0;
#X connect 91 0 90 0;
#X connect 92 0 83 1;
#X connect 93 0 95 0;
#X connect 93 1 92 0;
#X connect 94 0 93 0;
#X connect 95 0 74 0;
#X connect 96 0 99 0;
#X connect 97 0 96 1;
#X connect 99 0 102 0;
#X connect 102 0 103 0;
#X connect 103 0 104 0;
#X connect 104 0 106 0;
#X connect 105 0 77 0;
#X connect 106 0 105 0;
#X connect 107 0 103 1;
#X connect 107 0 110 0;
#X connect 108 0 107 1;
#X connect 109 0 107 1;
#X connect 111 0 108 0;
#X connect 112 0 113 0;
#X connect 113 0 111 0;
#X connect 113 1 76 0;
#X connect 113 2 109 0;
#X connect 115 0 40 0;
#X connect 116 0 117 0;
#X connect 117 0 118 0;
#X connect 118 0 94 0;
#X connect 119 0 21 0;
#X connect 121 0 24 0;
#X connect 121 0 57 0;
#X connect 121 0 129 0;
#X connect 123 0 51 0;
#X connect 124 0 7 0;
#X connect 125 0 123 1;
#X connect 126 0 47 0;
#X connect 127 0 125 0;
#X connect 129 0 45 0;
#X connect 130 0 129 1;
#X connect 131 0 130 0;
