#N canvas 3 22 1920 997 12;
#X declare -lib mrpeach;
#X obj -484 -105 unpackOSC;
#X obj 767 -22 import mrpeach;
#X obj 83 -190 mod 360;
#X obj 262 183 difference;
#X msg 768 -87 devices;
#X msg 768 -109 close;
#X obj 846 -92 arduino 1 9600;
#X obj 83 -165 s sim_performer;
#X obj 262 69 r sim_performer;
#X obj -484 -127 udpreceive 8015;
#X text -529 -5 pitch;
#X floatatom 514 183 5 0 0 0 - - -;
#X obj 299 110 r adjust_ceiling;
#X obj 262 130 -;
#X floatatom 262 155 5 0 0 0 - - -;
#X text 254 45 inhibit yaw if pitch between -70 70;
#X obj 262 304 inhibit_yaw;
#X floatatom 360 227 5 0 0 0 - - -;
#X floatatom -662 15 5 0 0 0 - - -;
#X obj -485 -5 unpack f f f f;
#X text -666 -14 roll;
#X msg 262 395 analog 6 \$1;
#X msg -455 358 analog 5 \$1;
#X text -95 161 yaw;
#X text -103 -13 pitch;
#X msg -662 360 analog 7 \$1;
#X text 845 -67 performer arduino runs at 9600 bauds/s;
#X text -67 182 HORIZONTAL;
#X text -662 148 ROLL;
#X floatatom -102 9 5 0 0 0 - - -;
#X text 90 -213 Use to align ceiling camera with user;
#X text -453 151 pitch;
#X text -410 36 yaw;
#X obj -71 107 s pitch;
#X obj 417 134 r pitch;
#X text -407 151 VERTICAL;
#X obj -453 175 map -1.7 1.7 2 8.5;
#X obj -659 322 hsl 128 15 2.2 8.5 0 0 empty empty empty -2 -8 0 10
-257985 -1 -1 6148 1;
#X obj -102 287 hsl 128 15 2.2 9 0 0 empty empty empty -2 -8 0 10 -204800
-1 -1 6350 1;
#X obj -452 334 hsl 128 15 2.2 8.5 0 0 empty empty empty -2 -8 0 10
-257985 -1 -1 6148 1;
#X floatatom -453 40 5 0 0 0 - - -;
#X floatatom -103 59 5 0 0 0 - - -;
#X obj -103 32 * 2;
#X obj 265 368 hsl 128 15 2.2 8.5 0 0 empty empty empty -2 -8 0 10
-257985 -1 -1 0 1;
#X obj 766 19 bng 15 250 50 0 empty empty empty 17 7 0 10 -262144 -1
-1;
#X obj 784 19 loadbang;
#X obj 765 71 s center;
#X floatatom -354 195 5 0 0 0 - - -;
#X floatatom -47 221 5 0 0 0 - - -;
#X floatatom -579 191 5 0 0 0 - - -;
#X msg 766 43 5;
#X obj -103 201 map -3 3 9 2;
#X obj 416 163 map 180 -180 0 360;
#X msg 842 195 5.25;
#X msg 769 194 5.6;
#X obj 262 432 speedlim 60;
#X obj -455 432 speedlim 60;
#X obj -662 423 speedlim 60;
#X obj 86 -343 hsl 128 15 -3 3 0 0 empty empty empty -2 -8 0 10 -257985
-1 -1 0 1;
#X obj 262 207 map 90 -90 8.5 2.2;
#X floatatom -5 -216 5 0 0 0 - - -;
#X obj 86 -231 hsl 128 15 0 360 0 0 empty empty empty -2 -8 0 10 -257985
-1 -1 0 1;
#X obj 769 157 bng 15 250 50 0 empty empty empty 17 7 0 10 -262144
-1 -1;
#N canvas 0 22 1284 721 botonCalibrar 0;
#X obj 280 212 inlet;
#X obj 280 239 bng 15 250 50 0 empty empty empty 17 7 0 10 -262144
-1 -1;
#X obj 133 213 inlet;
#X obj 168 335 spigot;
#X msg 280 272 1;
#X msg 314 273 0;
#X obj 136 271 hsl 128 15 0 360 0 0 empty empty empty -2 -8 0 10 -257985
-1 -1 0 1;
#X obj 133 236 map -3 3 0 360;
#X obj 169 359 outlet;
#X connect 0 0 1 0;
#X connect 1 0 4 0;
#X connect 1 0 6 0;
#X connect 1 0 5 0;
#X connect 2 0 7 0;
#X connect 3 0 8 0;
#X connect 4 0 3 1;
#X connect 5 0 3 1;
#X connect 6 0 3 0;
#X connect 7 0 6 0;
#X restore 83 -289 pd botonCalibrar;
#N canvas 0 22 1345 686 calibrarCompass 0;
#X floatatom 519 -148 5 0 0 0 - - -;
#X floatatom 310 180 5 0 0 0 - - -;
#X floatatom 477 40 5 0 0 0 - - -;
#X floatatom 481 103 5 0 0 0 - - -;
#X obj 481 72 spigot;
#X msg 553 -3 1;
#X msg 553 23 0;
#X obj 514 -34 t b b b;
#X floatatom 399 198 5 0 0 0 - - -;
#X obj 346 223 spigot;
#X obj 402 154 >;
#X obj 694 158 <;
#X floatatom 741 169 5 0 0 0 - - -;
#X obj 708 217 spigot;
#X floatatom 752 262 5 0 0 0 - - -;
#X obj 328 428 hsl 128 15 0 360 0 0 empty empty empty -2 -8 0 10 -262144
-1 -1 0 1;
#X floatatom 347 261 5 0 0 0 - - -;
#X msg 696 307 360;
#X obj 722 338 -;
#X obj 737 365 +;
#X floatatom 737 392 5 0 0 0 - - -;
#X floatatom 688 392 5 0 0 0 - - -;
#X obj 696 278 bng 15 250 50 0 empty empty empty 17 7 0 10 -262144
-1 -1;
#X obj 810 420 < 360;
#X floatatom 790 463 5 0 0 0 - - -;
#X obj 737 488 spigot;
#X floatatom 738 516 5 0 0 0 - - -;
#X obj 328 458 hsl 128 15 0 360 0 0 empty empty empty -2 -8 0 10 -262144
-1 -1 0 1;
#X obj 104 358 hsl 128 15 0 360 0 0 empty empty empty -2 -8 0 10 -262144
-1 -1 0 1;
#X obj 384 315 > 0;
#X floatatom 400 341 5 0 0 0 - - -;
#X obj 348 374 spigot;
#X floatatom 296 390 5 0 0 0 - - -;
#X floatatom 120 394 5 0 0 0 - - -;
#X obj 95 443 outlet;
#X obj 519 -182 inlet;
#X obj 95 -79 inlet;
#X msg 95 213 0;
#X obj 346 308 -;
#X obj 692 -153 bng 15 250 50 0 empty empty empty 17 7 0 10 -262144
-1 -1;
#X text 552 -159 Calibrar Norte a 0;
#X obj 779 -138 inlet;
#X connect 0 0 2 0;
#X connect 0 0 11 0;
#X connect 0 0 13 0;
#X connect 0 0 10 0;
#X connect 0 0 1 0;
#X connect 1 0 9 0;
#X connect 2 0 4 0;
#X connect 3 0 11 1;
#X connect 3 0 18 1;
#X connect 3 0 10 1;
#X connect 3 0 38 1;
#X connect 4 0 3 0;
#X connect 5 0 4 1;
#X connect 6 0 4 1;
#X connect 7 0 6 0;
#X connect 7 1 2 0;
#X connect 7 2 5 0;
#X connect 8 0 9 1;
#X connect 9 0 16 0;
#X connect 10 0 8 0;
#X connect 11 0 12 0;
#X connect 12 0 13 1;
#X connect 13 0 14 0;
#X connect 14 0 19 1;
#X connect 14 0 22 0;
#X connect 15 0 28 0;
#X connect 16 0 29 0;
#X connect 16 0 38 0;
#X connect 17 0 18 0;
#X connect 18 0 19 0;
#X connect 18 0 21 0;
#X connect 19 0 20 0;
#X connect 20 0 23 0;
#X connect 20 0 25 0;
#X connect 22 0 17 0;
#X connect 23 0 24 0;
#X connect 24 0 25 1;
#X connect 25 0 26 0;
#X connect 26 0 27 0;
#X connect 27 0 28 0;
#X connect 28 0 33 0;
#X connect 28 0 34 0;
#X connect 29 0 30 0;
#X connect 30 0 31 1;
#X connect 31 0 15 0;
#X connect 31 0 32 0;
#X connect 35 0 0 0;
#X connect 35 0 37 0;
#X connect 35 0 7 0;
#X connect 36 0 0 0;
#X connect 37 0 34 0;
#X connect 38 0 31 0;
#X connect 39 0 7 0;
#X connect 41 0 0 0;
#X restore 424 -140 pd calibrarCompass;
#X obj 424 -314 unpackOSC;
#X obj 424 -342 udpreceive 7777;
#X obj 427 -220 hsl 128 15 0 360 0 0 empty empty empty -2 -8 0 10 -257985
-1 -1 0 1;
#X obj 768 -270 bng 15 250 50 0 empty empty empty 17 7 0 10 -262144
-1 -1;
#X obj -28 -309 delay 200;
#X obj 315 -120 spigot;
#X floatatom 313 -96 5 0 0 0 - - -;
#X floatatom 364 384 5 0 0 0 - - -;
#X floatatom 387 -205 5 0 0 0 - - -;
#X obj 87 -77 +;
#X floatatom 87 -39 5 0 0 0 - - -;
#X floatatom 65 6 5 0 0 0 - - -;
#X obj 87 -14 mod 360;
#X obj -7 -97 spigot;
#X msg -28 -129 0;
#X msg 34 -241 1;
#X floatatom 7 -77 5 0 0 0 - - -;
#X obj -28 -163 delay 100;
#X obj -28 -261 t b b b;
#X obj -71 78 map 6.26 -6.26 -180 180;
#X obj 768 -327 key;
#X obj 768 -302 select 32;
#X obj -484 -83 routeOSC /ori;
#X obj -662 171 map -1.4 1.4 2 9;
#X obj 263 338 spigot;
#X msg 769 -64 open 4;
#X floatatom -453 244 5 0 0 0 - - -;
#X obj -455 288 split 2.6 7.8;
#X obj -453 210 > 2.8;
#X obj -662 266 spigot;
#X floatatom -401 244 5 0 0 0 - - -;
#X obj -401 209 > 2.8;
#X obj 424 -251 expr 360-$f1;
#X obj 769 -395 tgl 15 0 empty empty empty 17 7 0 10 -262144 -1 -1
0 1;
#X obj 769 -371 s movil;
#X obj 354 -151 r movil;
#X obj 485 -171 r calibrate;
#X obj 768 -243 s calibrate;
#X obj -28 -339 r calibrate;
#X obj 424 -281 routeOSC /gyrosc/comp;
#X obj -662 452 s toArduino;
#X obj 846 -129 r toArduino;
#X text -367 -130 From Oculus;
#X text 539 -345 From Mobile;
#X text 789 -400 Start/Stop Body's mobile;
#X text 838 -303 The oculus should be sending data for this to work
;
#X text 802 -274 Press the space key or this button to calibrate;
#X text -77 126 adjust head movement to a 180 range (instead of default
360);
#X obj 769 241 s center1;
#X obj -99 244 r center1;
#X obj 842 240 s center2;
#X obj -446 312 r center2;
#X obj -656 295 r center2;
#X text 801 156 Center servos for repair;
#X text -313 168 map values to Servo Range miniservo (2.5 8.5 // 2.5-9
for pitch);
#X floatatom -102 -362 5 0 0 0 - - -;
#X connect 0 0 87 0;
#X connect 2 0 7 0;
#X connect 3 0 59 0;
#X connect 4 0 6 0;
#X connect 5 0 6 0;
#X connect 8 0 13 0;
#X connect 9 0 0 0;
#X connect 12 0 13 1;
#X connect 13 0 14 0;
#X connect 14 0 3 0;
#X connect 16 0 89 0;
#X connect 18 0 88 0;
#X connect 19 0 18 0;
#X connect 19 1 40 0;
#X connect 19 2 29 0;
#X connect 21 0 55 0;
#X connect 22 0 56 0;
#X connect 25 0 57 0;
#X connect 29 0 42 0;
#X connect 29 0 120 0;
#X connect 34 0 52 0;
#X connect 36 0 47 0;
#X connect 36 0 92 0;
#X connect 36 0 93 0;
#X connect 36 0 96 0;
#X connect 37 0 25 0;
#X connect 38 0 16 1;
#X connect 39 0 22 0;
#X connect 40 0 36 0;
#X connect 41 0 51 0;
#X connect 41 0 84 0;
#X connect 42 0 41 0;
#X connect 43 0 21 0;
#X connect 43 0 72 0;
#X connect 44 0 50 0;
#X connect 45 0 50 0;
#X connect 50 0 46 0;
#X connect 51 0 48 0;
#X connect 51 0 38 0;
#X connect 52 0 11 0;
#X connect 52 0 3 1;
#X connect 53 0 115 0;
#X connect 54 0 113 0;
#X connect 55 0 105 0;
#X connect 56 0 105 0;
#X connect 57 0 105 0;
#X connect 58 0 63 0;
#X connect 59 0 17 0;
#X connect 59 0 16 0;
#X connect 60 0 78 0;
#X connect 61 0 2 0;
#X connect 61 0 60 0;
#X connect 62 0 54 0;
#X connect 62 0 53 0;
#X connect 63 0 61 0;
#X connect 64 0 70 0;
#X connect 65 0 104 0;
#X connect 66 0 65 0;
#X connect 67 0 73 0;
#X connect 67 0 64 0;
#X connect 68 0 102 0;
#X connect 69 0 63 1;
#X connect 69 0 83 0;
#X connect 70 0 71 0;
#X connect 71 0 74 0;
#X connect 74 0 75 0;
#X connect 75 0 77 0;
#X connect 76 0 61 0;
#X connect 77 0 76 0;
#X connect 78 0 74 1;
#X connect 78 0 81 0;
#X connect 79 0 78 1;
#X connect 80 0 78 1;
#X connect 82 0 79 0;
#X connect 83 0 82 0;
#X connect 83 1 60 0;
#X connect 83 2 80 0;
#X connect 84 0 33 0;
#X connect 85 0 86 0;
#X connect 86 0 68 0;
#X connect 87 0 19 0;
#X connect 88 0 49 0;
#X connect 88 0 94 0;
#X connect 89 0 43 0;
#X connect 90 0 6 0;
#X connect 91 0 89 1;
#X connect 92 0 39 0;
#X connect 93 0 91 0;
#X connect 94 0 37 0;
#X connect 95 0 94 1;
#X connect 96 0 95 0;
#X connect 97 0 67 0;
#X connect 98 0 99 0;
#X connect 100 0 70 1;
#X connect 101 0 64 1;
#X connect 103 0 69 0;
#X connect 104 0 97 0;
#X connect 106 0 6 0;
#X connect 114 0 38 0;
#X connect 116 0 39 0;
#X connect 117 0 37 0;
#X connect 120 0 58 0;
