#N canvas 202 701 1280 679 12;
#X declare -lib mrpeach;
#X floatatom -52 105 5 0 0 0 - - -;
#X obj 34 5 unpackOSC;
#X obj 34 27 routeOSC /gyrosc;
#X obj 145 58 routeOSC /comp;
#X obj -298 294 hsl 150 17 0 0.68 0 0 empty empty performer_camera_horizontal
-2 -6 1 10 -260818 -1 -1 14900 1;
#X obj -459 295 hsl 150 17 0 0.68 0 0 empty empty performer_camera_vertical
-2 -6 1 10 -260818 -1 -1 14900 1;
#X obj -583 -192 import mrpeach;
#X obj 522 280 hsl 150 17 0 0.69 0 0 empty empty Servo_0-180 -2 -6
1 10 -260818 -1 -1 10931 1;
#X obj 687 280 hsl 150 17 0 0.68 0 0 empty empty Servo_180-360 -2 -6
1 10 -260818 -1 -1 0 1;
#X msg 519 299 analog 9 \$1;
#X obj 520 8 reset_top;
#X obj -52 83 unpack f f;
#X obj -52 61 routeOSC /grav;
#X obj -52 126 autoscale 0 0.68;
#X obj -201 -150 mod 360;
#X floatatom -119 -170 5 0 0 0 - - -;
#X obj -119 -149 mod 360;
#X obj 145 80 unpack f;
#X floatatom -362 170 5 0 0 0 - - -;
#X text 207 83 user head horizontal orientation;
#X obj -300 189 difference;
#X floatatom -201 -171 5 0 0 0 - - -;
#X text -356 479 orange : data red : power brown : earth;
#X msg -635 358 devices;
#X msg -635 336 close;
#X msg 437 310 open 12;
#X msg 684 299 analog 10 \$1;
#X obj 684 243 map 180 360 0 0.68;
#X obj 519 243 map 0 180 0 0.68;
#X msg 603 183 180;
#X msg 565 183 180;
#X obj 519 88 -;
#X obj 519 110 mod 360;
#X obj 519 147 split 0 180;
#X obj 613 147 split 181 360;
#X obj -558 379 arduino 1 9600;
#X obj 519 321 arduino 2 57600;
#X obj -559 353 speedlim 80;
#X text 9 -194 Use to align ceiling camera with user;
#X text 146 -18 iphone on user's head;
#X msg 437 288 close;
#X text -447 378 performer arduino runs at 9600 bauds/s;
#X obj -119 -124 s sim_performer;
#X obj -201 -124 s sim_user;
#X obj 548 88 r sim_performer;
#X obj -360 148 r sim_performer;
#X text 640 323 ceiling arduino runs at 57600 bauds/s;
#X floatatom 11 -171 5 0 0 0 - - -;
#X obj 11 -150 mod 360;
#X obj 11 -125 s adjust_ceiling;
#X obj 537 40 r adjust_ceiling;
#X text -205 -194 Use to simulate orientations;
#X obj -195 168 r sim_user;
#X obj -504 -112 unpackOSC;
#X obj -504 -134 udpreceive 8015;
#X text -391 -135 oculus;
#X floatatom -522 -42 5 0 0 0 - - -;
#X obj -504 -90 routeOSC /headtracking;
#X obj -504 -67 unpack f f f f;
#X text -526 -24 roll;
#X text -476 -24 pitch;
#X floatatom -473 -44 5 0 0 0 - - -;
#X text -422 -26 yaw;
#X floatatom -421 -43 5 0 0 0 - - -;
#X text -548 -67 comment;
#X obj 36 -30 udpreceive 9999;
#X msg -635 380 open 3;
#X floatatom -293 230 5 0 0 0 - - -;
#X obj -301 259 map -90 90 0 0.68;
#X text -51 147 user head vertical orientation;
#X floatatom 144 105 5 0 0 0 - - -;
#X obj -577 254 hsl 150 17 0 0.68 0 0 empty empty performer_camera_vertical
-2 -6 1 10 -260818 -1 -1 14900 1;
#X floatatom -70 389 5 0 0 0 - - -;
#X obj -563 25 map -1.4 1.4 2 8.5;
#X msg -580 273 analog 7 \$1;
#X msg -462 314 analog 5 \$1;
#X msg -301 315 analog 6 \$1;
#X obj -230 -11 map -3 3 9 2;
#X obj -383 36 map -1.7 1.7 2 8.5;
#X connect 0 0 13 0;
#X connect 1 0 2 0;
#X connect 2 0 3 0;
#X connect 2 0 12 0;
#X connect 3 0 17 0;
#X connect 4 0 76 0;
#X connect 5 0 75 0;
#X connect 5 0 72 0;
#X connect 7 0 9 0;
#X connect 8 0 26 0;
#X connect 9 0 36 0;
#X connect 11 1 0 0;
#X connect 12 0 11 0;
#X connect 14 0 43 0;
#X connect 15 0 16 0;
#X connect 16 0 42 0;
#X connect 17 0 70 0;
#X connect 18 0 20 0;
#X connect 20 0 67 0;
#X connect 21 0 14 0;
#X connect 23 0 35 0;
#X connect 24 0 35 0;
#X connect 25 0 36 0;
#X connect 26 0 36 0;
#X connect 27 0 8 0;
#X connect 28 0 7 0;
#X connect 29 0 28 0;
#X connect 30 0 27 0;
#X connect 31 0 32 0;
#X connect 31 0 10 0;
#X connect 32 0 33 0;
#X connect 32 0 34 0;
#X connect 33 0 28 0;
#X connect 33 0 30 0;
#X connect 34 0 27 0;
#X connect 34 0 29 0;
#X connect 37 0 35 0;
#X connect 40 0 36 0;
#X connect 44 0 32 0;
#X connect 45 0 18 0;
#X connect 47 0 48 0;
#X connect 48 0 49 0;
#X connect 50 0 31 1;
#X connect 52 0 20 1;
#X connect 53 0 57 0;
#X connect 54 0 53 0;
#X connect 56 0 73 0;
#X connect 57 0 58 0;
#X connect 58 0 56 0;
#X connect 58 1 61 0;
#X connect 58 2 63 0;
#X connect 61 0 78 0;
#X connect 63 0 77 0;
#X connect 65 0 1 0;
#X connect 66 0 35 0;
#X connect 67 0 68 0;
#X connect 68 0 4 0;
#X connect 70 0 18 0;
#X connect 70 0 31 0;
#X connect 71 0 74 0;
#X connect 73 0 71 0;
#X connect 75 0 37 0;
#X connect 76 0 37 0;
#X connect 77 0 20 1;
#X connect 78 0 5 0;
