#N canvas 7 22 1349 669 10;
#X obj 885 -152 unpack f f f;
#X floatatom 885 -127 5 0 0 0 - - -;
#X obj 885 -236 unpackOSC;
#X obj 71 202 hsl 128 15 0.68 0 0 0 empty empty empty -2 -6 0 8 -262144
-1 -1 0 1;
#X obj 449 -79 vsl 15 128 0.23 0.57 0 0 empty empty empty 0 -9 0 10
-262144 -1 -1 6507 1;
#X floatatom 623 -68 5 0 0 0 - - -;
#X obj 523 -247 unpackOSC;
#N canvas 0 22 1345 686 calibrarCompass 0;
#X floatatom 519 -148 5 0 0 0 - - -;
#X floatatom 310 180 5 0 0 0 - - -;
#X floatatom 477 40 5 0 0 0 - - -;
#X floatatom 481 103 5 0 0 0 - - -;
#X obj 481 72 spigot;
#X msg 553 -3 1;
#X msg 553 23 0;
#X obj 514 -34 t b b b;
#X floatatom 399 198 5 0 0 0 - - -;
#X obj 346 223 spigot;
#X obj 402 154 >;
#X obj 694 158 <;
#X floatatom 741 169 5 0 0 0 - - -;
#X obj 708 217 spigot;
#X floatatom 752 262 5 0 0 0 - - -;
#X obj 328 428 hsl 128 15 0 360 0 0 empty empty empty -2 -8 0 10 -262144
-1 -1 4063 1;
#X floatatom 347 261 5 0 0 0 - - -;
#X msg 696 307 360;
#X obj 722 338 -;
#X obj 737 365 +;
#X floatatom 737 392 5 0 0 0 - - -;
#X floatatom 688 392 5 0 0 0 - - -;
#X obj 696 278 bng 15 250 50 0 empty empty empty 17 7 0 10 -262144
-1 -1;
#X obj 810 420 < 360;
#X floatatom 790 463 5 0 0 0 - - -;
#X obj 737 488 spigot;
#X floatatom 738 516 5 0 0 0 - - -;
#X obj 328 458 hsl 128 15 0 360 0 0 empty empty empty -2 -8 0 10 -262144
-1 -1 0 1;
#X obj 104 358 hsl 128 15 0 360 0 0 empty empty empty -2 -8 0 10 -262144
-1 -1 4063 1;
#X obj 384 315 > 0;
#X floatatom 400 341 5 0 0 0 - - -;
#X obj 348 374 spigot;
#X floatatom 296 390 5 0 0 0 - - -;
#X floatatom 120 394 5 0 0 0 - - -;
#X obj 95 443 outlet;
#X obj 519 -182 inlet;
#X obj 95 -79 inlet;
#X msg 95 213 0;
#X obj 346 308 -;
#X obj 692 -153 bng 15 250 50 0 empty empty empty 17 7 0 10 -262144
-1 -1;
#X text 552 -159 Calibrar Norte a 0;
#X connect 0 0 2 0;
#X connect 0 0 11 0;
#X connect 0 0 13 0;
#X connect 0 0 10 0;
#X connect 0 0 1 0;
#X connect 1 0 9 0;
#X connect 2 0 4 0;
#X connect 3 0 11 1;
#X connect 3 0 18 1;
#X connect 3 0 10 1;
#X connect 3 0 38 1;
#X connect 4 0 3 0;
#X connect 5 0 4 1;
#X connect 6 0 4 1;
#X connect 7 0 6 0;
#X connect 7 1 2 0;
#X connect 7 2 5 0;
#X connect 8 0 9 1;
#X connect 9 0 16 0;
#X connect 10 0 8 0;
#X connect 11 0 12 0;
#X connect 12 0 13 1;
#X connect 13 0 14 0;
#X connect 14 0 19 1;
#X connect 14 0 22 0;
#X connect 15 0 28 0;
#X connect 16 0 29 0;
#X connect 16 0 38 0;
#X connect 17 0 18 0;
#X connect 18 0 19 0;
#X connect 18 0 21 0;
#X connect 19 0 20 0;
#X connect 20 0 23 0;
#X connect 20 0 25 0;
#X connect 22 0 17 0;
#X connect 23 0 24 0;
#X connect 24 0 25 1;
#X connect 25 0 26 0;
#X connect 26 0 27 0;
#X connect 27 0 28 0;
#X connect 28 0 33 0;
#X connect 28 0 34 0;
#X connect 29 0 30 0;
#X connect 30 0 31 1;
#X connect 31 0 15 0;
#X connect 31 0 32 0;
#X connect 35 0 0 0;
#X connect 36 0 7 0;
#X connect 36 0 37 0;
#X connect 37 0 34 0;
#X connect 38 0 31 0;
#X connect 39 0 7 0;
#X restore 596 -30 pd calibrarCompass;
#X obj 782 -48 bng 15 250 50 0 empty empty empty 17 7 0 10 -262144
-1 -1;
#X floatatom 596 3 5 0 0 0 - - -;
#X obj 841 -61 bng 15 250 50 0 empty empty empty 17 7 0 10 -262144
-1 -1;
#N canvas 0 82 1349 686 calibrarCompass 0;
#X text 319 64 degree;
#X floatatom 519 -148 5 0 0 0 - - -;
#X floatatom 310 180 5 0 0 0 - - -;
#X floatatom 477 40 5 0 0 0 - - -;
#X floatatom 481 103 5 0 0 0 - - -;
#X obj 481 72 spigot;
#X msg 571 28 1;
#X msg 571 54 0;
#X obj 514 -34 t b b b;
#X text 552 -159 Calibrar Norte;
#X floatatom 399 198 5 0 0 0 - - -;
#X obj 346 223 spigot;
#X obj 402 154 >;
#X obj 623 152 <;
#X floatatom 741 169 5 0 0 0 - - -;
#X obj 708 217 spigot;
#X floatatom 752 262 5 0 0 0 - - -;
#X obj 328 428 hsl 128 15 0 360 0 0 empty empty empty -2 -8 0 10 -262144
-1 -1 11264 1;
#X floatatom 347 261 5 0 0 0 - - -;
#X msg 696 307 360;
#X obj 722 338 -;
#X obj 737 365 +;
#X floatatom 737 392 5 0 0 0 - - -;
#X floatatom 688 392 5 0 0 0 - - -;
#X obj 696 278 bng 15 250 50 0 empty empty empty 17 7 0 10 -262144
-1 -1;
#X obj 810 420 < 360;
#X floatatom 790 463 5 0 0 0 - - -;
#X obj 737 488 spigot;
#X floatatom 738 516 5 0 0 0 - - -;
#X obj 328 458 hsl 128 15 0 360 0 0 empty empty empty -2 -8 0 10 -262144
-1 -1 0 1;
#X obj 104 358 hsl 128 15 0 360 0 0 empty empty empty -2 -8 0 10 -262144
-1 -1 11264 1;
#X obj 384 315 > 0;
#X floatatom 400 341 5 0 0 0 - - -;
#X obj 348 374 spigot;
#X floatatom 296 390 5 0 0 0 - - -;
#X floatatom 120 394 5 0 0 0 - - -;
#X obj 95 443 outlet;
#X obj 209 -75 inlet;
#X obj 290 -75 inlet;
#X msg 89 216 0;
#X obj 346 308 -;
#X obj 22 -83 hsl 128 15 0 360 0 0 empty empty empty -2 -8 0 10 -262144
-1 -1 0 1;
#X obj 658 -156 bng 15 250 50 0 empty empty empty 17 7 0 10 -262144
-1 -1;
#X connect 1 0 3 0;
#X connect 1 0 13 0;
#X connect 1 0 15 0;
#X connect 1 0 12 0;
#X connect 1 0 2 0;
#X connect 2 0 11 0;
#X connect 3 0 5 0;
#X connect 4 0 13 1;
#X connect 4 0 20 1;
#X connect 4 0 12 1;
#X connect 4 0 40 1;
#X connect 5 0 4 0;
#X connect 6 0 5 1;
#X connect 7 0 5 1;
#X connect 8 0 7 0;
#X connect 8 1 3 0;
#X connect 8 2 6 0;
#X connect 10 0 11 1;
#X connect 11 0 18 0;
#X connect 12 0 10 0;
#X connect 13 0 14 0;
#X connect 14 0 15 1;
#X connect 15 0 16 0;
#X connect 16 0 21 1;
#X connect 16 0 24 0;
#X connect 17 0 30 0;
#X connect 18 0 31 0;
#X connect 18 0 40 0;
#X connect 19 0 20 0;
#X connect 20 0 21 0;
#X connect 20 0 23 0;
#X connect 21 0 22 0;
#X connect 22 0 25 0;
#X connect 22 0 27 0;
#X connect 24 0 19 0;
#X connect 25 0 26 0;
#X connect 26 0 27 1;
#X connect 27 0 28 0;
#X connect 28 0 29 0;
#X connect 29 0 30 0;
#X connect 30 0 35 0;
#X connect 30 0 36 0;
#X connect 31 0 32 0;
#X connect 32 0 33 1;
#X connect 33 0 17 0;
#X connect 33 0 34 0;
#X connect 37 0 1 0;
#X connect 38 0 8 0;
#X connect 38 0 39 0;
#X connect 39 0 36 0;
#X connect 40 0 33 0;
#X connect 41 0 1 0;
#X connect 42 0 8 0;
#X restore 885 7 pd calibrarCompass;
#X obj 990 -47 bng 15 250 50 0 empty empty empty 17 7 0 10 -262144
-1 -1;
#X floatatom 857 36 5 0 0 0 - - -;
#N canvas 0 22 450 300 map 0;
#X obj 96 33 inlet number;
#X obj 96 178 outlet mappednumber;
#X obj 171 128 \$1;
#X obj 246 128 \$2;
#X obj 321 128 \$3;
#X obj 397 128 \$4;
#X obj 298 90 loadbang;
#X obj 96 153 expr ($f1-$f2)*($f5-$f4)/($f3-$f2)+$f4;
#X obj 125 58 inlet low1;
#X obj 213 58 inlet high1;
#X obj 308 58 inlet low2;
#X obj 396 58 inlet high2;
#X connect 0 0 7 0;
#X connect 2 0 7 1;
#X connect 3 0 7 2;
#X connect 4 0 7 3;
#X connect 5 0 7 4;
#X connect 6 0 2 0;
#X connect 6 0 3 0;
#X connect 6 0 4 0;
#X connect 6 0 5 0;
#X connect 7 0 1 0;
#X connect 8 0 7 1;
#X connect 9 0 7 2;
#X connect 10 0 7 3;
#X connect 11 0 7 4;
#X restore 532 219 pd map;
#X obj 67 67 hsl 150 17 0.1 0.58 0 0 empty empty Servo_control_(0-1)
-2 -6 1 10 -260818 -1 -1 0 1;
#X text 58 10 disable PWM:;
#X obj 283 68 hsl 150 17 0.23 0.58 0 0 empty empty Servo_control_(0-1)
-2 -6 1 10 -260818 -1 -1 7416 1;
#X text 269 9 disable PWM:;
#X text 50 -12 PIN9:;
#X text 261 -14 PIN10:;
#X floatatom 285 152 5 0 0 0 - - -;
#X floatatom 78 151 5 0 0 0 - - -;
#X obj 634 123 loadbang;
#X obj 418 -355 bng 15 250 50 0 empty empty empty 17 7 0 10 -262144
-1 -1;
#X text 909 38 Brujula cuerpo;
#X msg 60 29 pinMode 10 servo;
#X msg 92 130 analog 10 \$1;
#X msg 595 162 0.57;
#X obj 885 -290 spigot;
#X msg 838 -373 0;
#X msg 871 -394 1;
#X obj 838 -423 bng 15 250 50 0 empty empty empty 17 7 0 10 -262144
-1 -1;
#X obj 418 -410 bng 15 250 50 0 empty empty empty 17 7 0 10 -262144
-1 -1;
#X obj 527 -289 spigot;
#X msg 271 28 pinMode 8 servo;
#X msg 301 134 analog 8 \$1;
#X obj 838 -454 r close;
#X text 347 -353 Calibrar;
#X text 96 89 hotizontal;
#X text 331 86 vertical;
#X text 649 -427 Apagado/Encendido de Móviles;
#X text 652 -410 0 OFF 1 ON;
#X obj 777 -453 loadbang;
#X text 525 -340 Iphone Cabeza Usuario;
#X text 882 -349 Android Espalda Usuario;
#X text 633 1 Brújula cabeza;
#X text 579 220 Inclinación cabeza;
#N canvas 0 22 1349 669 mapeoCompass 0;
#N canvas 0 22 450 300 map 0;
#X obj 96 33 inlet number;
#X obj 96 178 outlet mappednumber;
#X obj 171 128 \$1;
#X obj 246 128 \$2;
#X obj 321 128 \$3;
#X obj 397 128 \$4;
#X obj 298 90 loadbang;
#X obj 96 153 expr ($f1-$f2)*($f5-$f4)/($f3-$f2)+$f4;
#X obj 125 58 inlet low1;
#X obj 213 58 inlet high1;
#X obj 308 58 inlet low2;
#X obj 396 58 inlet high2;
#X connect 0 0 7 0;
#X connect 2 0 7 1;
#X connect 3 0 7 2;
#X connect 4 0 7 3;
#X connect 5 0 7 4;
#X connect 6 0 2 0;
#X connect 6 0 3 0;
#X connect 6 0 4 0;
#X connect 6 0 5 0;
#X connect 7 0 1 0;
#X connect 8 0 7 1;
#X connect 9 0 7 2;
#X connect 10 0 7 3;
#X connect 11 0 7 4;
#X restore 194 386 pd map;
#X floatatom 291 349 5 0 0 0 - - -;
#X obj 811 60 - 360;
#X floatatom 811 88 5 0 0 0 - - -;
#X obj 511 20 moses 0;
#X obj 511 49 + 360;
#X floatatom 511 74 5 0 0 0 - - -;
#X floatatom 633 -107 5 0 0 0 - - -;
#X obj 636 -164 hsl 128 15 0 360 0 0 empty empty empty -2 -8 0 10 -262144
-1 -1 11264 1;
#X floatatom 760 -15 5 0 0 0 - - -;
#X floatatom 511 -14 5 0 0 0 - - -;
#X floatatom 665 160 5 0 0 0 - - -;
#X obj 760 21 moses 360;
#X floatatom 594 161 5 0 0 0 - - -;
#N canvas 0 22 450 300 map 0;
#X obj 96 33 inlet number;
#X obj 96 178 outlet mappednumber;
#X obj 171 128 \$1;
#X obj 246 128 \$2;
#X obj 321 128 \$3;
#X obj 397 128 \$4;
#X obj 298 90 loadbang;
#X obj 96 153 expr ($f1-$f2)*($f5-$f4)/($f3-$f2)+$f4;
#X obj 125 58 inlet low1;
#X obj 213 58 inlet high1;
#X obj 308 58 inlet low2;
#X obj 396 58 inlet high2;
#X connect 0 0 7 0;
#X connect 2 0 7 1;
#X connect 3 0 7 2;
#X connect 4 0 7 3;
#X connect 5 0 7 4;
#X connect 6 0 2 0;
#X connect 6 0 3 0;
#X connect 6 0 4 0;
#X connect 6 0 5 0;
#X connect 7 0 1 0;
#X connect 8 0 7 1;
#X connect 9 0 7 2;
#X connect 10 0 7 3;
#X connect 11 0 7 4;
#X restore 369 442 pd map;
#X floatatom 291 406 5 0 0 0 - - -;
#X floatatom 329 407 5 0 0 0 - - -;
#X msg 364 407 360;
#X obj 511 154 abs;
#X msg 393 407 0;
#X floatatom 369 465 5 0 0 0 - - -;
#N canvas 0 22 450 300 map 0;
#X obj 96 33 inlet number;
#X obj 96 178 outlet mappednumber;
#X obj 171 128 \$1;
#X obj 246 128 \$2;
#X obj 321 128 \$3;
#X obj 397 128 \$4;
#X obj 298 90 loadbang;
#X obj 96 153 expr ($f1-$f2)*($f5-$f4)/($f3-$f2)+$f4;
#X obj 125 58 inlet low1;
#X obj 213 58 inlet high1;
#X obj 308 58 inlet low2;
#X obj 396 58 inlet high2;
#X connect 0 0 7 0;
#X connect 2 0 7 1;
#X connect 3 0 7 2;
#X connect 4 0 7 3;
#X connect 5 0 7 4;
#X connect 6 0 2 0;
#X connect 6 0 3 0;
#X connect 6 0 4 0;
#X connect 6 0 5 0;
#X connect 7 0 1 0;
#X connect 8 0 7 1;
#X connect 9 0 7 2;
#X connect 10 0 7 3;
#X connect 11 0 7 4;
#X restore 763 443 pd map;
#X floatatom 713 408 5 0 0 0 - - -;
#X floatatom 763 469 5 0 0 0 - - -;
#X floatatom 780 160 5 0 0 0 - - -;
#X floatatom 713 355 5 0 0 0 - - -;
#X floatatom 328 349 5 0 0 0 - - -;
#X floatatom 198 428 5 0 0 0 - - -;
#X floatatom 400 120 5 0 0 0 - - -;
#X floatatom 915 105 5 0 0 0 - - -;
#X obj 915 60 > 360;
#X obj 400 61 < 0;
#X obj 433 61 > 0;
#X msg 433 94 0;
#X msg 874 88 0;
#X obj 874 60 < 360;
#X obj 1150 341 &&;
#X floatatom 1150 361 5 0 0 0 - - -;
#X obj 1149 268 == 0;
#X obj 401 154 == 0;
#X floatatom 1133 296 5 0 0 0 - - -;
#X floatatom 1172 297 5 0 0 0 - - -;
#X obj 291 377 split 260 360;
#X obj 152 167 hsl 128 15 0 360 0 0 empty empty empty -2 -8 0 10 -262144
-1 -1 4063 1;
#X floatatom 149 219 5 0 0 0 - - -;
#X msg 218 349 0;
#N canvas 0 22 450 300 map 0;
#X obj 96 33 inlet number;
#X obj 96 178 outlet mappednumber;
#X obj 171 128 \$1;
#X obj 246 128 \$2;
#X obj 321 128 \$3;
#X obj 397 128 \$4;
#X obj 298 90 loadbang;
#X obj 96 153 expr ($f1-$f2)*($f5-$f4)/($f3-$f2)+$f4;
#X obj 125 58 inlet low1;
#X obj 213 58 inlet high1;
#X obj 308 58 inlet low2;
#X obj 396 58 inlet high2;
#X connect 0 0 7 0;
#X connect 2 0 7 1;
#X connect 3 0 7 2;
#X connect 4 0 7 3;
#X connect 5 0 7 4;
#X connect 6 0 2 0;
#X connect 6 0 3 0;
#X connect 6 0 4 0;
#X connect 6 0 5 0;
#X connect 7 0 1 0;
#X connect 8 0 7 1;
#X connect 9 0 7 2;
#X connect 10 0 7 3;
#X connect 11 0 7 4;
#X restore 584 718 pd map;
#X floatatom 599 749 5 0 0 0 - - -;
#X msg 641 641 0;
#X msg 535 637 0;
#N canvas 0 22 450 300 map 0;
#X obj 96 33 inlet number;
#X obj 96 178 outlet mappednumber;
#X obj 171 128 \$1;
#X obj 246 128 \$2;
#X obj 321 128 \$3;
#X obj 397 128 \$4;
#X obj 298 90 loadbang;
#X obj 96 153 expr ($f1-$f2)*($f5-$f4)/($f3-$f2)+$f4;
#X obj 125 58 inlet low1;
#X obj 213 58 inlet high1;
#X obj 308 58 inlet low2;
#X obj 396 58 inlet high2;
#X connect 0 0 7 0;
#X connect 2 0 7 1;
#X connect 3 0 7 2;
#X connect 4 0 7 3;
#X connect 5 0 7 4;
#X connect 6 0 2 0;
#X connect 6 0 3 0;
#X connect 6 0 4 0;
#X connect 6 0 5 0;
#X connect 7 0 1 0;
#X connect 8 0 7 1;
#X connect 9 0 7 2;
#X connect 10 0 7 3;
#X connect 11 0 7 4;
#X restore 551 442 pd map;
#X floatatom 496 405 5 0 0 0 - - -;
#X floatatom 551 465 5 0 0 0 - - -;
#X floatatom 599 408 5 0 0 0 - - -;
#X floatatom 563 407 5 0 0 0 - - -;
#X msg 534 406 0;
#X obj 496 377 split 0 128;
#X obj 633 -136 i;
#X obj 369 490 spigot;
#X floatatom 369 517 5 0 0 0 - - -;
#X floatatom 1099 352 5 0 0 0 - - -;
#X obj 272 482 spigot;
#X floatatom 272 508 5 0 0 0 - - -;
#N canvas 0 22 450 300 map 0;
#X obj 96 33 inlet number;
#X obj 96 178 outlet mappednumber;
#X obj 171 128 \$1;
#X obj 246 128 \$2;
#X obj 321 128 \$3;
#X obj 397 128 \$4;
#X obj 298 90 loadbang;
#X obj 96 153 expr ($f1-$f2)*($f5-$f4)/($f3-$f2)+$f4;
#X obj 125 58 inlet low1;
#X obj 213 58 inlet high1;
#X obj 308 58 inlet low2;
#X obj 396 58 inlet high2;
#X connect 0 0 7 0;
#X connect 2 0 7 1;
#X connect 3 0 7 2;
#X connect 4 0 7 3;
#X connect 5 0 7 4;
#X connect 6 0 2 0;
#X connect 6 0 3 0;
#X connect 6 0 4 0;
#X connect 6 0 5 0;
#X connect 7 0 1 0;
#X connect 8 0 7 1;
#X connect 9 0 7 2;
#X connect 10 0 7 3;
#X connect 11 0 7 4;
#X restore 941 443 pd map;
#X floatatom 941 470 5 0 0 0 - - -;
#X floatatom 633 -10 5 0 0 0 - - -;
#X floatatom 903 412 5 0 0 0 - - -;
#X msg 937 412 360;
#X msg 965 412 0;
#X floatatom 994 412 5 0 0 0 - - -;
#X obj 994 358 - 360;
#X obj 994 389 abs;
#X obj 863 385 split 260 360;
#X obj 713 382 split 0 128;
#X msg 751 408 0;
#X obj 1099 325 == 0;
#X floatatom 1204 350 5 0 0 0 - - -;
#X obj 1204 324 == 0;
#X obj 831 502 spigot;
#X floatatom 831 530 5 0 0 0 - - -;
#X obj 149 113 inlet;
#X obj 633 -193 inlet;
#X text 121 88 Rotacion Cabeza;
#X text 605 -221 Rotación Cuerpo;
#X obj 599 781 outlet;
#X msg 604 639 0.68;
#X obj 511 -54 - 80;
#X obj 760 -51 + 80;
#X msg 637 408 160;
#X msg 815 408 160;
#X msg 251 349 160;
#X msg 570 639 160;
#X text 704 -191 Datos Compass Cuerpo en Usuario. 0 - 360;
#X text 743 -104 Creacion de rango de para el giro de cabeza \, 160
grados \, 80 izquierda 80 derecha \, donde esté el compass Cuerpo nos
dará el punto 0 o el punto de referencia.;
#X text 638 -31 Centro/punto de Ref.;
#X floatatom 574 2 5 0 0 0 - - -;
#X text 227 8 Compruebo cuando debo calibrar datos que se encuentran
a la izquierda y la derecha del 0 en el compass de 360 grados;
#X text 870 25 Compruebo cuando debo calibrar datos que se encuentran
a la izquierda y la derecha del 0 en el compass de 360 grados;
#X obj 574 38 moses 0;
#X floatatom 633 119 5 0 0 0 - - -;
#X text 629 137 Centro;
#X floatatom 496 352 5 0 0 0 - - -;
#X text 143 248 Cuando el rango de mapeo está dentro de los límites
del rango de 160 grados y dentro de los 360 grados Premapeo a 0 - 160
;
#X text 1018 192 Selecciono entre tres estados el giro de la cabeza
definido de 160 grados. 1-Cuando esta contenido dentro de 0 a 360 2.Cuando
traspasa el limite de 0 3.Cuando traspasa el limite de 360;
#X text 660 179 Dere;
#X text 591 180 Izqui;
#X text 1158 379 1;
#X text 1214 367 3;
#X text 1111 366 2;
#X floatatom 1269 335 5 0 0 0 - - -;
#X obj 563 751 vsl 15 128 0 0.68 0 0 empty empty empty 0 -9 0 10 -262144
-1 -1 0 1;
#X floatatom 420 408 5 0 0 0 - - -;
#X floatatom 779 409 5 0 0 0 - - -;
#X floatatom 863 357 5 0 0 0 - - -;
#X floatatom 863 412 5 0 0 0 - - -;
#X obj 173 313 split 0 128;
#X floatatom 733 83 5 0 0 0 - - -;
#X obj 740 58 moses 360;
#X obj 732 135 s centro;
#X obj 116 -5 loadbang;
#X obj 116 33 s ldbng;
#X obj 616 580 r ldbng;
#X obj 393 364 r ldbng;
#X obj 262 311 r ldbng;
#X obj 638 374 r ldbng;
#X obj 799 359 r ldbng;
#X obj 940 357 r ldbng;
#X text 764 591 3;
#X text 376 591 1;
#X text 436 569 2;
#X text 1144 169 Estados 1 2 3;
#X connect 0 0 27 0;
#X connect 1 0 42 0;
#X connect 2 0 3 0;
#X connect 3 0 24 0;
#X connect 3 0 116 0;
#X connect 4 0 5 0;
#X connect 4 0 31 0;
#X connect 4 1 32 0;
#X connect 5 0 6 0;
#X connect 6 0 16 0;
#X connect 6 0 26 0;
#X connect 6 0 13 0;
#X connect 7 0 65 0;
#X connect 7 0 86 0;
#X connect 7 0 87 0;
#X connect 7 0 109 0;
#X connect 8 0 57 0;
#X connect 9 0 12 0;
#X connect 10 0 4 0;
#X connect 10 0 95 0;
#X connect 11 0 112 0;
#X connect 11 0 56 2;
#X connect 11 0 54 0;
#X connect 11 0 0 2;
#X connect 11 0 115 2;
#X connect 12 0 35 0;
#X connect 12 0 117 0;
#X connect 12 1 2 0;
#X connect 12 1 30 0;
#X connect 13 0 0 1;
#X connect 13 0 70 0;
#X connect 13 0 66 0;
#X connect 13 0 72 1;
#X connect 13 0 115 1;
#X connect 14 0 20 0;
#X connect 15 0 14 0;
#X connect 16 0 14 1;
#X connect 17 0 14 2;
#X connect 18 0 53 0;
#X connect 18 0 111 0;
#X connect 19 0 14 3;
#X connect 20 0 58 0;
#X connect 21 0 23 0;
#X connect 22 0 21 0;
#X connect 23 0 78 0;
#X connect 24 0 73 2;
#X connect 25 0 73 0;
#X connect 26 0 42 1;
#X connect 27 0 61 0;
#X connect 28 0 39 0;
#X connect 29 0 38 0;
#X connect 30 0 29 0;
#X connect 31 0 28 0;
#X connect 32 0 33 0;
#X connect 33 0 28 0;
#X connect 34 0 29 0;
#X connect 35 0 34 0;
#X connect 36 0 37 0;
#X connect 37 0 61 1;
#X connect 38 0 41 0;
#X connect 39 0 40 0;
#X connect 40 0 36 0;
#X connect 40 0 75 0;
#X connect 41 0 36 1;
#X connect 41 0 77 0;
#X connect 42 0 15 0;
#X connect 43 0 44 0;
#X connect 43 0 25 0;
#X connect 43 0 1 0;
#X connect 43 0 101 0;
#X connect 43 0 113 0;
#X connect 43 0 115 0;
#X connect 45 0 0 3;
#X connect 46 0 47 0;
#X connect 46 0 110 0;
#X connect 47 0 84 0;
#X connect 48 0 46 4;
#X connect 49 0 46 1;
#X connect 50 0 52 0;
#X connect 51 0 50 0;
#X connect 52 0 58 0;
#X connect 53 0 50 3;
#X connect 54 0 50 2;
#X connect 55 0 50 1;
#X connect 56 0 51 0;
#X connect 57 0 7 0;
#X connect 58 0 59 0;
#X connect 59 0 46 0;
#X connect 60 0 58 1;
#X connect 61 0 62 0;
#X connect 62 0 46 0;
#X connect 63 0 64 0;
#X connect 64 0 78 0;
#X connect 65 0 99 0;
#X connect 66 0 63 1;
#X connect 67 0 63 2;
#X connect 68 0 63 3;
#X connect 69 0 63 4;
#X connect 69 0 21 3;
#X connect 70 0 71 0;
#X connect 71 0 69 0;
#X connect 72 0 114 0;
#X connect 73 0 22 0;
#X connect 74 0 21 1;
#X connect 75 0 60 0;
#X connect 76 0 78 1;
#X connect 77 0 76 0;
#X connect 78 0 79 0;
#X connect 79 0 46 0;
#X connect 80 0 43 0;
#X connect 81 0 8 0;
#X connect 85 0 46 3;
#X connect 86 0 10 0;
#X connect 87 0 9 0;
#X connect 88 0 50 4;
#X connect 89 0 21 4;
#X connect 90 0 0 4;
#X connect 91 0 46 2;
#X connect 95 0 18 0;
#X connect 95 0 98 0;
#X connect 98 1 6 0;
#X connect 99 0 118 0;
#X connect 101 0 56 0;
#X connect 111 0 14 4;
#X connect 112 0 21 2;
#X connect 113 0 72 0;
#X connect 114 0 63 0;
#X connect 115 0 0 0;
#X connect 116 0 11 0;
#X connect 117 0 116 0;
#X connect 119 0 120 0;
#X connect 121 0 49 0;
#X connect 121 0 91 0;
#X connect 121 0 85 0;
#X connect 121 0 48 0;
#X connect 122 0 17 0;
#X connect 122 0 19 0;
#X connect 123 0 45 0;
#X connect 123 0 90 0;
#X connect 124 0 88 0;
#X connect 124 0 55 0;
#X connect 125 0 74 0;
#X connect 125 0 89 0;
#X connect 126 0 67 0;
#X connect 126 0 68 0;
#X restore 675 40 pd mapeoCompass;
#X msg 120 -103 close;
#X text 156 -428 <- list devices;
#X msg 106 -426 devices;
#X obj 57 -48 s arduino;
#X obj 190 101 r arduino;
#X text 203 -55 Mostrar puertos seriales;
#X obj 1271 45 hsl 150 17 0 1 0 0 empty empty Servo_control_(0-1) -2
-6 1 10 -260818 -1 -1 8143 1;
#X text 1246 -38 disable PWM:;
#X obj 1479 45 hsl 150 17 0 1 0 0 empty empty Servo_control_(0-1) -2
-6 1 10 -260818 -1 -1 894 1;
#X text 1454 -38 disable PWM:;
#X text 1238 -60 PIN9:;
#X text 1446 -58 PIN10:;
#X text 1233 -166 Servo control;
#X msg 1233 104 analog 9 \$1;
#X msg 1509 105 analog 10 \$1;
#X msg 1248 -19 pinMode 9 servo;
#X msg 1456 -19 pinMode 10 servo;
#X text 1234 -139 You can control servo motors using Pd. First \, set
the pin to servo mode using the pinMode message \, then send analog
values to that pin with a range between 0 and 1 0 will set the position
to one extreme \, and 1 to the other.;
#N canvas 0 22 450 300 map 0;
#X obj 96 33 inlet number;
#X obj 96 178 outlet mappednumber;
#X obj 171 128 \$1;
#X obj 246 128 \$2;
#X obj 321 128 \$3;
#X obj 397 128 \$4;
#X obj 298 90 loadbang;
#X obj 96 153 expr ($f1-$f2)*($f5-$f4)/($f3-$f2)+$f4;
#X obj 125 58 inlet low1;
#X obj 213 58 inlet high1;
#X obj 308 58 inlet low2;
#X obj 396 58 inlet high2;
#X connect 0 0 7 0;
#X connect 2 0 7 1;
#X connect 3 0 7 2;
#X connect 4 0 7 3;
#X connect 5 0 7 4;
#X connect 6 0 2 0;
#X connect 6 0 3 0;
#X connect 6 0 4 0;
#X connect 6 0 5 0;
#X connect 7 0 1 0;
#X connect 8 0 7 1;
#X connect 9 0 7 2;
#X connect 10 0 7 3;
#X connect 11 0 7 4;
#X restore 1728 -29 pd map;
#X floatatom 1673 -66 5 0 0 0 - - -;
#X floatatom 1728 -6 5 0 0 0 - - -;
#X floatatom 1673 -221 5 0 0 0 - - -;
#X obj 1679 -575 hsl 128 15 0 360 0 0 empty empty empty -2 -8 0 10
-262144 -1 -1 11264 1;
#X floatatom 1859 -64 5 0 0 0 - - -;
#X floatatom 1914 -4 5 0 0 0 - - -;
#X floatatom 1859 -219 5 0 0 0 - - -;
#X obj 1859 -194 split 181 359;
#X obj 1673 -196 split 1 180;
#X obj 1668 62 hsl 128 15 0 0.69 0 0 empty empty empty -2 -8 0 10 -262144
-1 -1 10059 1;
#X obj 1917 63 hsl 128 15 0 0.69 0 0 empty empty empty -2 -8 0 10 -262144
-1 -1 1104 1;
#X msg 1711 -65 0;
#X msg 1746 -66 180;
#X text 1701 94 servo1;
#X text 1942 91 servo2;
#X obj 2124 -274 hsl 128 15 0 360 0 0 empty empty empty -2 -8 0 10
-262144 -1 -1 4914 1;
#X obj 2305 -76 bng 15 250 50 0 empty empty empty 17 7 0 10 -262144
-1 -1;
#X obj 2334 -76 bng 15 250 50 0 empty empty empty 17 7 0 10 -262144
-1 -1;
#X obj 2247 -104 moses 355;
#X obj 2349 -101 moses 5;
#X msg 1866 -34 181;
#X text 1694 -261 servo1;
#X text 1919 -263 servo2;
#X msg 1669 -39 180;
#X text 1833 111 A arduino.;
#X text 2166 -208 Si el usuario está dentro determinado rango de numeros
(mirando hacia atras) apagamos visor durante dos segundos para que
el performer no se maree con el retroceso/calibración de los servos
y la webcam.;
#N canvas 0 82 1349 686 calibrarCompass 0;
#X text 319 64 degree;
#X floatatom 519 -148 5 0 0 0 - - -;
#X floatatom 310 180 5 0 0 0 - - -;
#X floatatom 477 40 5 0 0 0 - - -;
#X floatatom 481 103 5 0 0 0 - - -;
#X obj 481 72 spigot;
#X msg 571 28 1;
#X msg 571 54 0;
#X obj 514 -34 t b b b;
#X text 552 -159 Calibrar Norte;
#X floatatom 399 198 5 0 0 0 - - -;
#X obj 346 223 spigot;
#X obj 402 154 >;
#X obj 623 152 <;
#X floatatom 741 169 5 0 0 0 - - -;
#X obj 708 217 spigot;
#X floatatom 752 262 5 0 0 0 - - -;
#X obj 328 428 hsl 128 15 0 360 0 0 empty empty empty -2 -8 0 10 -262144
-1 -1 4914 1;
#X floatatom 347 261 5 0 0 0 - - -;
#X msg 696 307 360;
#X obj 722 338 -;
#X obj 737 365 +;
#X floatatom 737 392 5 0 0 0 - - -;
#X floatatom 688 392 5 0 0 0 - - -;
#X obj 696 278 bng 15 250 50 0 empty empty empty 17 7 0 10 -262144
-1 -1;
#X obj 810 420 < 360;
#X floatatom 790 463 5 0 0 0 - - -;
#X obj 737 488 spigot;
#X floatatom 738 516 5 0 0 0 - - -;
#X obj 328 458 hsl 128 15 0 360 0 0 empty empty empty -2 -8 0 10 -262144
-1 -1 6461 1;
#X obj 104 358 hsl 128 15 0 360 0 0 empty empty empty -2 -8 0 10 -262144
-1 -1 4914 1;
#X obj 384 315 > 0;
#X floatatom 400 341 5 0 0 0 - - -;
#X obj 348 374 spigot;
#X floatatom 296 390 5 0 0 0 - - -;
#X floatatom 120 394 5 0 0 0 - - -;
#X obj 95 443 outlet;
#X obj 209 -75 inlet;
#X obj 290 -75 inlet;
#X msg 89 216 0;
#X obj 346 308 -;
#X obj 22 -83 hsl 128 15 0 360 0 0 empty empty empty -2 -8 0 10 -262144
-1 -1 0 1;
#X obj 658 -156 bng 15 250 50 0 empty empty empty 17 7 0 10 -262144
-1 -1;
#X connect 1 0 3 0;
#X connect 1 0 13 0;
#X connect 1 0 15 0;
#X connect 1 0 12 0;
#X connect 1 0 2 0;
#X connect 2 0 11 0;
#X connect 3 0 5 0;
#X connect 4 0 13 1;
#X connect 4 0 20 1;
#X connect 4 0 12 1;
#X connect 4 0 40 1;
#X connect 5 0 4 0;
#X connect 6 0 5 1;
#X connect 7 0 5 1;
#X connect 8 0 7 0;
#X connect 8 1 3 0;
#X connect 8 2 6 0;
#X connect 10 0 11 1;
#X connect 11 0 18 0;
#X connect 12 0 10 0;
#X connect 13 0 14 0;
#X connect 14 0 15 1;
#X connect 15 0 16 0;
#X connect 16 0 21 1;
#X connect 16 0 24 0;
#X connect 17 0 30 0;
#X connect 18 0 31 0;
#X connect 18 0 40 0;
#X connect 19 0 20 0;
#X connect 20 0 21 0;
#X connect 20 0 23 0;
#X connect 21 0 22 0;
#X connect 22 0 25 0;
#X connect 22 0 27 0;
#X connect 24 0 19 0;
#X connect 25 0 26 0;
#X connect 26 0 27 1;
#X connect 27 0 28 0;
#X connect 28 0 29 0;
#X connect 29 0 30 0;
#X connect 30 0 35 0;
#X connect 30 0 36 0;
#X connect 31 0 32 0;
#X connect 32 0 33 1;
#X connect 33 0 17 0;
#X connect 33 0 34 0;
#X connect 37 0 1 0;
#X connect 38 0 8 0;
#X connect 38 0 39 0;
#X connect 39 0 36 0;
#X connect 40 0 33 0;
#X connect 41 0 1 0;
#X connect 42 0 8 0;
#X restore 1676 -456 pd calibrarCompass;
#X obj 1751 -494 bng 15 250 50 0 empty empty empty 17 7 0 10 -262144
-1 -1;
#X msg 1703 -497 180;
#X obj 1708 -527 loadbang;
#X floatatom 1676 -429 5 0 0 0 - - -;
#X obj 1676 -394 hsl 128 15 0 360 0 0 empty empty empty -2 -8 0 10
-262144 -1 -1 4914 1;
#X floatatom 1686 -548 5 0 0 0 - - -;
#X text 1727 -427 valor de 0 -360 ya calibrado;
#X obj 1924 -89 loadbang;
#X msg 1897 -56 181;
#N canvas 0 22 450 300 map 0;
#X obj 96 33 inlet number;
#X obj 96 178 outlet mappednumber;
#X obj 171 128 \$1;
#X obj 246 128 \$2;
#X obj 321 128 \$3;
#X obj 397 128 \$4;
#X obj 298 90 loadbang;
#X obj 96 153 expr ($f1-$f2)*($f5-$f4)/($f3-$f2)+$f4;
#X obj 125 58 inlet low1;
#X obj 213 58 inlet high1;
#X obj 308 58 inlet low2;
#X obj 396 58 inlet high2;
#X connect 0 0 7 0;
#X connect 2 0 7 1;
#X connect 3 0 7 2;
#X connect 4 0 7 3;
#X connect 5 0 7 4;
#X connect 6 0 2 0;
#X connect 6 0 3 0;
#X connect 6 0 4 0;
#X connect 6 0 5 0;
#X connect 7 0 1 0;
#X connect 8 0 7 1;
#X connect 9 0 7 2;
#X connect 10 0 7 3;
#X connect 11 0 7 4;
#X restore 1914 -27 pd map;
#X obj 1755 -98 loadbang;
#X text 1793 -532 Aquí recibimos los Datos del compass del cuerpo.
0-360 \, Pero como la brújula del usuario sentado mirando hacia el
frente estába calibrada a 0 \, debemos recalibrar ese valor a 180 para
hacer un uso coherente de los servos \, Queremos que el cero y el 360
sean cuando el usuario mira hacia atrás \, que es la posición menos
frecuente y en donde habrá el movimiento de retroceso de servos.;
#X floatatom 1493 134 5 0 0 0 - - -;
#X msg 2000 -54 0.69;
#X floatatom 1281 135 5 0 0 0 - - -;
#X msg 1814 -63 0.69;
#X obj 2603 -741 unpack f f f;
#X floatatom 2596 -716 5 0 0 0 - - -;
#X floatatom 2637 -716 5 0 0 0 - - -;
#X floatatom 2672 -716 5 0 0 0 - - -;
#X obj 2603 -765 routeOSC /ori;
#X text 2581 -690 brujula;
#X msg 2292 23 0;
#X msg 2334 18 1;
#X obj 2263 60 bng 15 250 50 0 empty empty empty 17 7 0 10 -262144
-1 -1;
#X obj 2331 59 bng 15 250 50 0 empty empty empty 17 7 0 10 -262144
-1 -1;
#X obj 2268 185 sendOSC;
#X floatatom 2268 212 5 0 0 0 - - -;
#X msg 2164 155 disconnect;
#X floatatom 2322 214 5 0 0 0 - - -;
#X msg 2213 106 send /enciende 0;
#X msg 2337 105 send /enciende 1;
#X text 2350 134 Enciende HMD;
#X text 2233 129 Apaga HMD;
#X msg 2475 82 connect localhost 7401;
#X msg 1964 -55 0.06;
#X msg 1778 -64 0.06;
#X obj 2351 -15 delay 1000;
#X text 1676 -625 Recibe Brújula Cuerpo;
#X msg 1318 -338 close;
#X text 1459 -273 <- list devices;
#X msg 763 -562 devices;
#X obj 1257 -310 bng 15 250 50 0 empty empty empty 17 7 0 10 -262144
-1 -1;
#X text 1403 -251 Mostrar puertos seriales;
#X obj 1257 -211 s arduino2;
#X obj 1385 80 r arduino2;
#X obj 1032 18 s senital;
#X obj 1676 -601 r senital;
#X obj 190 128 arduino 1;
#X msg 1257 -338 open 15;
#X obj 1376 120 arduino2;
#X msg 632 162 0.23;
#X text 2371 217 comment;
#X msg 1928 -57 359;
#X text 1822 -580 valor entrante sin calibrar para servos senital;
#X text 1785 -169 Este envío cruzado es por si hay un salto brusco
(de 354 pasa a 7 por ejemplo) recalibre y ponga en posición inicial
el servo que no se esté girando en ese momento. (Este proceso creemos
que dura alrededor de 1 a 2 segundos);
#X text 302 -411 Encender Móviles;
#X obj 417 -388 bng 15 250 50 0 empty empty empty 17 7 0 10 -262144
-1 -1;
#X text 313 -388 Apagar Móviles;
#X obj 419 -495 bng 15 250 50 0 empty empty empty 17 7 0 10 -262144
-1 -1;
#X obj 418 -461 bng 15 250 50 0 empty empty empty 17 7 0 10 -262144
-1 -1;
#X obj 469 -497 s open;
#X obj 467 -458 s close;
#X obj 57 -141 r open;
#X obj 120 -141 r close;
#X text 57 -177 Open/Close serial conexion arduino performer;
#X text 1381 -342 Open/Close serial conexion arduino senital;
#X obj 885 -320 udpreceive 8011;
#X obj 311 103 speedlim 80;
#X obj 11 100 speedlim 80;
#X obj 1226 79 speedlim 80;
#X obj 1512 78 speedlim 80;
#X obj 2481 29 r open;
#X text 1255 -400 Servos Senital;
#X obj 822 -620 bng 15 250 50 0 empty empty empty 17 7 0 10 -262144
-1 -1;
#X obj 821 -586 bng 15 250 50 0 empty empty empty 17 7 0 10 -262144
-1 -1;
#X obj 871 -622 s open2;
#X obj 870 -583 s close2;
#X obj 1257 -367 r open2;
#X obj 1318 -367 r close2;
#X text 1687 -615 comment;
#X text 69 -497 Encender conexión serial del arduino con servos performer
;
#X text 81 -465 Apagar conexión serial del arduino con servos performer
;
#X text 497 -588 Apagar conexión serial del arduino con servos senital
;
#X text 487 -620 Encender conexión serial del arduino con servos senital
;
#X msg 57 -105 open 4;
#X text 595 -69 yaw;
#X obj 885 -195 routeOSC /gyrosc;
#X obj 886 -174 routeOSC /grav;
#X floatatom 920 -126 5 0 0 0 - - -;
#X floatatom 958 -127 5 0 0 0 - - -;
#X floatatom 1034 -126 5 0 0 0 - - -;
#X obj 1034 -206 routeOSC /gyrosc;
#X obj 1034 -183 routeOSC /comp;
#X obj 1034 -159 unpack f;
#X floatatom 886 -104 5 0 0 0 - - -;
#X floatatom 541 -68 5 0 0 0 - - -;
#X text 540 -86 pitch;
#X floatatom 519 -164 5 0 0 0 - - -;
#X obj 537 -212 routeOSC /headtracking;
#X obj 537 -189 unpack f f f f;
#X text 515 -146 roll;
#X text 565 -146 pitch;
#X floatatom 568 -166 5 0 0 0 - - -;
#X text 619 -148 yaw;
#X floatatom 620 -165 5 0 0 0 - - -;
#X obj 494 -130 map -1.4 1.4 0 360;
#X obj 621 -134 map -3 3 0 360;
#X msg 527 161 -1.7;
#X msg 561 162 1.7;
#X obj 527 -320 udpreceive 8015;
#X connect 0 0 1 0;
#X connect 0 1 184 0;
#X connect 0 2 185 0;
#X connect 1 0 190 0;
#X connect 2 0 182 0;
#X connect 2 0 187 0;
#X connect 3 0 15 0;
#X connect 4 0 17 0;
#X connect 5 0 7 1;
#X connect 6 0 194 0;
#X connect 7 0 9 0;
#X connect 8 0 7 0;
#X connect 9 0 48 0;
#X connect 10 0 8 0;
#X connect 10 0 12 0;
#X connect 11 0 13 0;
#X connect 11 0 141 0;
#X connect 12 0 11 1;
#X connect 13 0 48 1;
#X connect 14 0 4 0;
#X connect 15 0 22 0;
#X connect 15 0 164 0;
#X connect 17 0 21 0;
#X connect 17 0 163 0;
#X connect 23 0 203 0;
#X connect 23 0 204 0;
#X connect 23 0 28 0;
#X connect 23 0 146 0;
#X connect 24 0 10 0;
#X connect 26 0 143 0;
#X connect 27 0 143 0;
#X connect 28 0 14 3;
#X connect 29 0 2 0;
#X connect 30 0 29 1;
#X connect 30 0 34 1;
#X connect 31 0 29 1;
#X connect 31 0 34 1;
#X connect 32 0 30 0;
#X connect 33 0 31 0;
#X connect 34 0 6 0;
#X connect 35 0 143 0;
#X connect 36 0 143 0;
#X connect 37 0 32 0;
#X connect 43 0 32 0;
#X connect 48 0 3 0;
#X connect 49 0 52 0;
#X connect 51 0 52 0;
#X connect 53 0 143 0;
#X connect 55 0 109 0;
#X connect 55 0 165 0;
#X connect 57 0 107 0;
#X connect 57 0 166 0;
#X connect 62 0 145 0;
#X connect 63 0 145 0;
#X connect 64 0 145 0;
#X connect 65 0 145 0;
#X connect 67 0 69 0;
#X connect 68 0 67 0;
#X connect 69 0 77 0;
#X connect 70 0 76 0;
#X connect 71 0 100 0;
#X connect 71 0 94 0;
#X connect 72 0 104 0;
#X connect 73 0 78 0;
#X connect 74 0 75 0;
#X connect 75 0 72 0;
#X connect 75 0 91 0;
#X connect 76 0 68 0;
#X connect 76 0 88 0;
#X connect 77 0 55 0;
#X connect 78 0 57 0;
#X connect 79 0 67 1;
#X connect 80 0 67 2;
#X connect 83 0 86 0;
#X connect 83 0 87 0;
#X connect 84 0 117 0;
#X connect 84 0 132 0;
#X connect 85 0 117 0;
#X connect 85 0 132 0;
#X connect 86 1 84 0;
#X connect 87 0 85 0;
#X connect 88 0 104 0;
#X connect 91 0 67 0;
#X connect 94 0 98 0;
#X connect 95 0 94 1;
#X connect 96 0 94 0;
#X connect 97 0 96 0;
#X connect 97 0 95 0;
#X connect 98 0 99 0;
#X connect 99 0 83 0;
#X connect 99 0 70 0;
#X connect 99 0 74 0;
#X connect 102 0 103 0;
#X connect 102 0 148 0;
#X connect 102 0 130 0;
#X connect 102 0 108 0;
#X connect 103 0 104 1;
#X connect 104 0 73 0;
#X connect 105 0 79 0;
#X connect 105 0 80 0;
#X connect 105 0 131 0;
#X connect 105 0 110 0;
#X connect 108 0 104 4;
#X connect 110 0 67 4;
#X connect 111 0 112 0;
#X connect 111 1 113 0;
#X connect 111 2 114 0;
#X connect 115 0 111 0;
#X connect 117 0 119 0;
#X connect 118 0 120 0;
#X connect 119 0 125 0;
#X connect 120 0 126 0;
#X connect 121 0 122 0;
#X connect 121 1 124 0;
#X connect 123 0 121 0;
#X connect 125 0 121 0;
#X connect 126 0 121 0;
#X connect 129 0 121 0;
#X connect 130 0 104 3;
#X connect 131 0 67 3;
#X connect 132 0 118 0;
#X connect 134 0 139 0;
#X connect 136 0 139 0;
#X connect 140 0 145 0;
#X connect 142 0 71 0;
#X connect 144 0 137 0;
#X connect 144 0 139 0;
#X connect 146 0 14 4;
#X connect 148 0 104 2;
#X connect 152 0 30 0;
#X connect 154 0 156 0;
#X connect 155 0 157 0;
#X connect 158 0 180 0;
#X connect 159 0 49 0;
#X connect 162 0 29 0;
#X connect 163 0 36 0;
#X connect 164 0 27 0;
#X connect 165 0 62 0;
#X connect 166 0 63 0;
#X connect 167 0 129 0;
#X connect 169 0 171 0;
#X connect 170 0 172 0;
#X connect 173 0 144 0;
#X connect 174 0 134 0;
#X connect 180 0 52 0;
#X connect 182 0 183 0;
#X connect 183 0 0 0;
#X connect 186 0 11 0;
#X connect 187 0 188 0;
#X connect 188 0 189 0;
#X connect 189 0 186 0;
#X connect 191 0 14 0;
#X connect 193 0 201 0;
#X connect 194 0 195 0;
#X connect 195 0 193 0;
#X connect 195 1 198 0;
#X connect 195 2 200 0;
#X connect 198 0 191 0;
#X connect 200 0 202 0;
#X connect 202 0 5 0;
#X connect 203 0 14 1;
#X connect 204 0 14 2;
#X connect 205 0 34 0;
