#N canvas 569 6 1064 797 12;
#X declare -lib mrpeach;
#X obj -474 -95 unpackOSC;
#X obj 342 20 import mrpeach;
#X msg 343 -45 devices;
#X msg 343 -68 close;
#X obj 421 -50 arduino 1 9600;
#X obj -473 -174 udpreceive 8015;
#X text -519 5 pitch;
#X obj -475 -13 unpack f f f f;
#X text -85 171 yaw;
#X text -93 -3 pitch;
#X text 486 -25 performer arduino runs at 9600 bauds/s;
#X text -57 192 HORIZONTAL;
#X floatatom -92 19 5 0 0 0 - - -;
#X text -443 161 pitch;
#X text -400 46 yaw;
#X obj -61 117 s pitch;
#X text -397 161 VERTICAL;
#X obj -442 344 hsl 128 15 2.6 8.5 0 0 empty empty empty -2 -8 0 10
-257985 -1 -1 10508 1;
#X floatatom -443 50 5 0 0 0 - - -;
#X floatatom -93 69 5 0 0 0 - - -;
#X obj -93 42 * 2;
#X obj -113 342 hsl 128 15 2.65 8.5 0 0 empty empty empty -2 -8 0 10
-257985 -1 -1 2954 1;
#X floatatom -307 223 5 0 0 0 - - -;
#X floatatom -37 231 5 0 0 0 - - -;
#X obj 291 241 bng 15 250 50 0 empty empty empty 17 7 0 10 -262144
-1 -1;
#X floatatom -14 358 5 0 0 0 - - -;
#X obj -61 88 map 6.26 -6.26 -180 180;
#X obj -474 -73 routeOSC /ori;
#X floatatom -384 255 5 0 0 0 - - -;
#X obj -430 221 > 2.8;
#X floatatom -332 255 5 0 0 0 - - -;
#X obj -391 219 > 2.8;
#X obj 421 -87 r toArduino;
#X text -357 -120 From Oculus;
#X text -67 136 adjust head movement to a 180 range (instead of default
360);
#X obj 291 325 s center1;
#X obj -127 268 r center1;
#X obj 364 324 s center2;
#X obj -436 322 r center2;
#X text 323 240 Center servos for repair;
#X text 97 -43 shows list of devices in terminal;
#X text 88 -21 change to your arduino port number;
#X obj -448 484 s toArduino;
#X obj -79 587 s toArduino;
#X obj -447 442 speedlim 40;
#X floatatom 35 277 5 0 0 0 - - -;
#X floatatom -325 375 5 0 0 0 - - -;
#X msg 367 278 5.5;
#X msg 292 275 5.5;
#X floatatom -18 560 5 0 0 0 - - -;
#X obj -79 560 spigot;
#X obj -18 532 < 2.6;
#X floatatom -18 402 5 0 0 0 - - -;
#X obj 178 410 bng 15 250 50 0 empty empty empty 17 7 0 10 -262144
-1 -1;
#X floatatom -228 497 5 0 0 0 - - -;
#X floatatom -80 430 5 0 0 0 - - -;
#X obj -80 402 +;
#X floatatom 29 560 5 0 0 0 - - -;
#X obj 29 532 > 2.6;
#X obj -94 211 map -3 3 2.6 8.5;
#X obj -79 489 speedlim 0;
#X obj -442 185 map -1.7 1.7 9 2.6;
#X msg 220 277 0;
#X msg 384 -19 open 3;
#X msg -445 368 analog 6 \$1;
#X msg -77 462 analog 5 \$1;
#X obj 86 369 hsl 128 15 -0.5 0.5 0 0 empty empty empty -2 -8 0 10
-257985 -1 -1 3800 1;
#X connect 0 0 27 0;
#X connect 2 0 4 0;
#X connect 3 0 4 0;
#X connect 5 0 0 0;
#X connect 7 1 18 0;
#X connect 7 2 12 0;
#X connect 12 0 20 0;
#X connect 17 0 64 0;
#X connect 17 0 46 0;
#X connect 18 0 61 0;
#X connect 19 0 26 0;
#X connect 19 0 59 0;
#X connect 20 0 19 0;
#X connect 21 0 25 0;
#X connect 21 0 56 0;
#X connect 24 0 48 0;
#X connect 24 0 47 0;
#X connect 24 0 62 0;
#X connect 26 0 15 0;
#X connect 27 0 7 0;
#X connect 29 0 28 0;
#X connect 31 0 30 0;
#X connect 32 0 4 0;
#X connect 36 0 21 0;
#X connect 38 0 17 0;
#X connect 44 0 42 0;
#X connect 45 0 21 0;
#X connect 47 0 37 0;
#X connect 48 0 35 0;
#X connect 50 0 43 0;
#X connect 51 0 49 0;
#X connect 51 0 50 1;
#X connect 52 0 56 1;
#X connect 53 0 56 0;
#X connect 55 0 65 0;
#X connect 55 0 51 0;
#X connect 55 0 58 0;
#X connect 56 0 55 0;
#X connect 58 0 57 0;
#X connect 58 0 50 1;
#X connect 59 0 23 0;
#X connect 59 0 21 0;
#X connect 60 0 50 0;
#X connect 61 0 22 0;
#X connect 61 0 29 0;
#X connect 61 0 31 0;
#X connect 61 0 17 0;
#X connect 62 0 66 0;
#X connect 63 0 4 0;
#X connect 64 0 44 0;
#X connect 65 0 54 0;
#X connect 65 0 60 0;
#X connect 66 0 52 0;
#X connect 66 0 53 0;
