#N canvas 0 0 1916 997 12;
#X declare -lib mrpeach;
#X obj -474 -95 unpackOSC;
#X obj 342 20 import mrpeach;
#X msg 343 -45 devices;
#X msg 343 -68 close;
#X obj 421 -50 arduino 1 9600;
#X obj -473 -174 udpreceive 8015;
#X text -519 5 pitch;
#X floatatom -652 25 5 0 0 0 - - -;
#X obj -475 -13 unpack f f f f;
#X text -656 -4 roll;
#X msg -116 369 analog 6 \$1;
#X msg -445 368 analog 5 \$1;
#X text -85 171 yaw;
#X text -93 -3 pitch;
#X msg -652 370 analog 7 \$1;
#X text 420 -25 performer arduino runs at 9600 bauds/s;
#X text -57 192 HORIZONTAL;
#X text -652 158 ROLL;
#X floatatom -92 19 5 0 0 0 - - -;
#X text -443 161 pitch;
#X text -400 46 yaw;
#X obj -61 117 s pitch;
#X text -397 161 VERTICAL;
#X obj -443 185 map -1.7 1.7 2 8.5;
#X obj -649 332 hsl 128 15 2.2 8.5 0 0 empty empty empty -2 -8 0 10
-257985 -1 -1 0 1;
#X obj -442 344 hsl 128 15 2.2 8.5 0 0 empty empty empty -2 -8 0 10
-257985 -1 -1 0 1;
#X floatatom -443 50 5 0 0 0 - - -;
#X floatatom -93 69 5 0 0 0 - - -;
#X obj -93 42 * 2;
#X obj -113 342 hsl 128 15 2.2 8.5 0 0 empty empty empty -2 -8 0 10
-257985 -1 -1 0 1;
#X floatatom -344 205 5 0 0 0 - - -;
#X floatatom -37 231 5 0 0 0 - - -;
#X floatatom -569 201 5 0 0 0 - - -;
#X obj -93 211 map -3 3 9 2;
#X msg 417 237 5.25;
#X msg 344 236 5.6;
#X obj 344 199 bng 15 250 50 0 empty empty empty 17 7 0 10 -262144
-1 -1;
#X floatatom -14 358 5 0 0 0 - - -;
#X obj -61 88 map 6.26 -6.26 -180 180;
#X obj -474 -73 routeOSC /ori;
#X obj -652 181 map -1.4 1.4 2 9;
#X floatatom -443 254 5 0 0 0 - - -;
#X obj -445 298 split 2.6 7.8;
#X obj -443 220 > 2.8;
#X obj -652 276 spigot;
#X floatatom -391 254 5 0 0 0 - - -;
#X obj -391 219 > 2.8;
#X obj -579 487 s toArduino;
#X obj 421 -87 r toArduino;
#X text -357 -120 From Oculus;
#X text -67 136 adjust head movement to a 180 range (instead of default
360);
#X obj 344 283 s center1;
#X obj -127 268 r center1;
#X obj 417 282 s center2;
#X obj -436 322 r center2;
#X obj -646 305 r center2;
#X text 376 198 Center servos for repair;
#X text -303 178 map values to Servo Range miniservo (2.5 8.5 // 2.5-9
for pitch);
#X text 97 -43 shows list of devices in terminal;
#X text 88 -21 change to your arduino port number;
#X obj -535 363 + 0.1;
#X msg 344 -22 open 3;
#X obj -448 484 s toArduino;
#X obj -137 471 s toArduino;
#X obj -116 406 speedlim 40;
#X obj -447 442 speedlim 40;
#X obj -654 433 speedlim 40;
#X connect 0 0 39 0;
#X connect 2 0 4 0;
#X connect 3 0 4 0;
#X connect 5 0 0 0;
#X connect 7 0 40 0;
#X connect 8 0 7 0;
#X connect 8 1 26 0;
#X connect 8 2 18 0;
#X connect 10 0 64 0;
#X connect 11 0 65 0;
#X connect 14 0 66 0;
#X connect 18 0 28 0;
#X connect 23 0 30 0;
#X connect 23 0 42 0;
#X connect 23 0 43 0;
#X connect 23 0 46 0;
#X connect 24 0 60 0;
#X connect 25 0 11 0;
#X connect 26 0 23 0;
#X connect 27 0 33 0;
#X connect 27 0 38 0;
#X connect 28 0 27 0;
#X connect 29 0 10 0;
#X connect 29 0 37 0;
#X connect 33 0 31 0;
#X connect 33 0 29 0;
#X connect 34 0 53 0;
#X connect 35 0 51 0;
#X connect 36 0 35 0;
#X connect 36 0 34 0;
#X connect 38 0 21 0;
#X connect 39 0 8 0;
#X connect 40 0 32 0;
#X connect 40 0 44 0;
#X connect 42 0 25 0;
#X connect 43 0 41 0;
#X connect 44 0 24 0;
#X connect 45 0 44 1;
#X connect 46 0 45 0;
#X connect 48 0 4 0;
#X connect 52 0 29 0;
#X connect 54 0 25 0;
#X connect 55 0 24 0;
#X connect 60 0 14 0;
#X connect 61 0 4 0;
#X connect 64 0 63 0;
#X connect 65 0 62 0;
